HIERARCHY
ROOT Hips
{
  OFFSET -187.679 86.5976 -156.378
  CHANNELS 6 Xposition Yposition Zposition Zrotation Xrotation Yrotation
  JOINT LeftUpLeg
  {
    OFFSET 8.64259 1.95398 -2.38835
    CHANNELS 3 Zrotation Xrotation Yrotation
    JOINT LeftLeg
    {
      OFFSET 43.7702 0 0
      CHANNELS 3 Zrotation Xrotation Yrotation
      JOINT LeftFoot
      {
        OFFSET 40.6238 0 0
        CHANNELS 3 Zrotation Xrotation Yrotation
        JOINT LeftToeBase
        {
          OFFSET 12.7242 0 0
          CHANNELS 3 Zrotation Xrotation Yrotation
          End Site
          {
            OFFSET 0 0 0
          }
        }
      }
    }
  }
  JOINT RightUpLeg
  {
    OFFSET -8.2249 1.95398 -2.59336
    CHANNELS 3 Zrotation Xrotation Yrotation
    JOINT RightLeg
    {
      OFFSET 43.5653 0 0
      CHANNELS 3 Zrotation Xrotation Yrotation
      JOINT RightFoot
      {
        OFFSET 40.6238 0 0
        CHANNELS 3 Zrotation Xrotation Yrotation
        JOINT RightToeBase
        {
          OFFSET 12.7242 0 0
          CHANNELS 3 Zrotation Xrotation Yrotation
          End Site
          {
            OFFSET 0 0 0
          }
        }
      }
    }
  }
  JOINT Spine
  {
    OFFSET 0.165834 0.87714 6.61349
    CHANNELS 3 Zrotation Xrotation Yrotation
    JOINT Spine1
    {
      OFFSET 7.38963 1.71661e-005 0
      CHANNELS 3 Zrotation Xrotation Yrotation
      JOINT Spine2
      {
        OFFSET 11.9445 1.14441e-005 0
        CHANNELS 3 Zrotation Xrotation Yrotation
        JOINT Spine3
        {
          OFFSET 14.7254 4.19617e-005 0
          CHANNELS 3 Zrotation Xrotation Yrotation
          JOINT Spine4
          {
            OFFSET 10.9679 0 0
            CHANNELS 3 Zrotation Xrotation Yrotation
            JOINT RightShoulder
            {
              OFFSET 2.46616 -1.6653 3.69651
              CHANNELS 3 Zrotation Xrotation Yrotation
              JOINT RightArm
              {
                OFFSET 13.0012 0 0
                CHANNELS 3 Zrotation Xrotation Yrotation
                JOINT RightForeArm
                {
                  OFFSET 28.7848 1.52588e-005 0
                  CHANNELS 3 Zrotation Xrotation Yrotation
                  JOINT RightHand
                  {
                    OFFSET 26.5688 1.52588e-005 0
                    CHANNELS 3 Zrotation Xrotation Yrotation
                    End Site
                    {
                      OFFSET 0 0 0
                    }
                  }
                }
              }
            }
            JOINT LeftShoulder
            {
              OFFSET 2.38034 -1.29275 -3.7523
              CHANNELS 3 Zrotation Xrotation Yrotation
              JOINT LeftArm
              {
                OFFSET 16.3182 6.10352e-005 0
                CHANNELS 3 Zrotation Xrotation Yrotation
                JOINT LeftForeArm
                {
                  OFFSET 27.0901 0 0
                  CHANNELS 3 Zrotation Xrotation Yrotation
                  JOINT LeftHand
                  {
                    OFFSET 24.5451 1.52588e-005 0
                    CHANNELS 3 Zrotation Xrotation Yrotation
                    End Site
                    {
                      OFFSET 0 0 0
                    }
                  }
                }
              }
            }
            JOINT Neck
            {
              OFFSET 5.0226 -0.0266342 0
              CHANNELS 3 Zrotation Xrotation Yrotation
              JOINT Head
              {
                OFFSET 6.69363 2.86102e-005 0
                CHANNELS 3 Zrotation Xrotation Yrotation
                End Site
                {
                  OFFSET 0 0 0
                }
              }
            }
          }
        }
      }
    }
  }
}
MOTION
Frames:	6
Frame Time:	0.0416667
-233.731 68.3574 -235.306 -18.7809 -53.4057 -19.8405 -41.3852 66.765 -11.5081 -90.8891 26.9405 -16.7113 75.0806 11.1652 11.8386 18.4425 4.18484 -20.0928 -174.565 59.2352 61.6597 -82.2955 12.8701 -5.19498 98.5692 -10.7456 13.7472 52.9339 4.28154 -12.2237 0.205194 11.7766 -90.5954 3.31985 0.17342 -1.1641 -8.35168 0.122031 -1.17061 -30.8831 0.515241 -1.05818 -10.8704 0.515244 -1.05819 81.2515 -42.3001 -116.974 -34.5465 8.93488 -62.2412 -9.42411 -35.5229 -5.80621 -22.4397 -2.20941 5.99788 -95.7477 -26.1562 60.8316 18.689 -11.8996 -62.435 9.98819 13.4904 -0.124279 7.32465 0.322926 0.877537 42.7902 -1.81503 -2.828 11.9619 0.35778 4.68061 
-240.315 65.729 -239.282 -8.90995 -52.412 -12.4322 -32.9924 62.2863 -22.0479 -93.6779 18.0397 -16.2583 74.2513 9.83117 9.50146 19.7915 1.07853 -11.3253 -166.582 66.5739 57.9705 -95.5462 15.8974 -5.46073 98.7047 -11.1825 10.9065 57.1753 4.45855 -13.06 0.385944 11.981 -90.6068 2.9132 0.532 -1.18084 -8.75819 0.479518 -1.2031 -31.2911 0.862275 -0.966373 -11.2785 0.862279 -0.966381 80.2932 -41.6251 -118.824 -30.6948 18.3014 -56.7684 -16.2001 -31.0775 -9.63183 -29.4392 -3.16722 7.3854 -99.4965 -31.5887 56.9054 17.3574 -17.2247 -59.6245 15.6669 19.7522 -8.93685 10.7682 0.722105 2.70545 42.2468 0.668217 2.22977 16.215 0.364329 4.74387 
-245.801 63.2831 -240.905 1.19772 -51.7467 -5.98774 -30.1821 60.4256 -25.8765 -92.0761 21.9364 -16.3198 72.0512 7.9468 7.45473 19.5299 2.59755 -15.4226 -157.16 69.1032 50.7095 -105.536 14.3088 -5.77485 99.6308 -12.3137 6.19454 60.5783 4.54874 -13.0595 0.380048 12.2547 -90.5184 2.36565 0.557264 -1.00195 -9.3056 0.512635 -1.0255 -31.8396 0.83262 -0.788176 -11.827 0.832617 -0.788167 80.7257 -41.8206 -118.034 -31.0075 20.7366 -52.5861 -16.9471 -22.3337 -9.20995 -25.4669 -1.58047 2.13805 -102.044 -33.5489 53.628 21.786 -18.611 -56.8806 16.1262 12.4332 -13.4341 13.9001 0.914573 2.80771 39.0166 1.44104 6.95035 21.6794 -0.923358 4.17066 
-250.461 61.3701 -240.912 6.45711 -49.6635 -2.51321 -27.0406 58.3575 -25.2969 -89.4355 28.0692 -19.1296 70.6389 7.20364 7.90476 16.8264 1.6464 -14.5667 -153.733 72.3878 51.9417 -110.873 24.304 -5.13509 99.0186 -12.1136 5.34957 63.2385 4.59554 -13.8849 0.768843 12.5177 -90.4705 1.84215 1.35409 -0.884846 -9.82841 1.31384 -0.943586 -32.3685 1.55741 -0.436901 -12.3559 1.5574 -0.436922 81.7338 -43.0253 -115.883 -23.446 28.169 -50.5106 -22.2068 -16.878 -17.9275 -44.5143 -7.76242 14.7484 -102.993 -30.9835 50.5188 19.0574 -23.614 -56.1055 22.277 14.9649 -25.5201 15.2892 1.01683 2.89074 37.8271 0.785 8.55033 25.7028 -1.2653 6.90313 
-253.568 60.2963 -240.015 11.1595 -48.6092 2.80178 -24.3492 57.9811 -26.6146 -87.3464 32.8456 -20.73 68.855 6.13136 7.93384 19.8659 -0.165314 -8.23874 -163.321 74.1994 63.2263 -114.085 25.6062 -4.54623 97.304 -12.9812 2.01622 65.2377 4.59837 -14.7086 0.95024 12.9811 -90.6887 0.918243 1.63694 -1.28262 -10.7524 1.5789 -1.35344 -33.2939 1.94671 -0.731261 -13.2812 1.94671 -0.731272 81.6773 -46.2973 -114.609 -16.8235 38.7656 -49.2378 -36.5992 -22.4918 -44.3393 -31.8186 -6.42255 17.6178 -100.594 -24.463 50.6353 13.8443 -30.127 -54.8251 24.8963 12.9653 -34.0942 17.1056 1.34057 4.13042 32.0561 -0.297873 3.00442 31.0031 2.62837 12.7777 
-254.859 60.589 -238.5 13.7136 -49.8007 7.46306 -23.9476 59.5477 -26.603 -87.1416 34.992 -20.1878 68.5158 5.96494 8.12245 19.2749 0.330361 -9.91838 -177.895 71.3246 77.3213 -113.579 24.5317 -4.21931 97.4076 -13.0881 1.7335 66.5902 4.71179 -13.0566 1.32844 13.4765 -90.8636 -0.0690063 2.33047 -1.56184 -11.739 2.25948 -1.66293 -34.2883 2.69206 -0.788912 -14.2756 2.69207 -0.788914 83.0426 -46.3178 -112.481 -18.8972 40.4761 -46.4828 -29.3175 -16.541 -41.2891 -45.5482 -9.82884 18.4732 -97.2888 -18.4261 52.9392 8.75339 -32.6241 -58.4082 25.6657 14.0443 -35.5356 18.3418 1.69783 5.54164 29.6119 -0.58019 -3.43227 31.074 6.25042 16.7011 
